<svg xmlns="http://www.w3.org/2000/svg" viewBox="0 0 550.16 154.23"><defs><linearGradient id="a" x1="-2286.66" x2="-2225.33" y1="-17" y2="46.67" gradientTransform="matrix(-1 0 0 1 -1934.59 0)" gradientUnits="userSpaceOnUse"><stop offset=".27" stop-color="gray"/><stop offset=".37" stop-color="#848484" stop-opacity=".97"/><stop offset=".47" stop-color="#8f8f8f" stop-opacity=".88"/><stop offset=".56" stop-color="#a2a2a2" stop-opacity=".73"/><stop offset=".65" stop-color="#bdbdbd" stop-opacity=".52"/><stop offset=".74" stop-color="#dfdfdf" stop-opacity=".25"/><stop offset=".81" stop-color="#fff" stop-opacity="0"/></linearGradient></defs><g data-name="Layer 2"><g data-name="Layer 1"><path fill="#fff" d="M314.21 99.85h21.84V77.91L258.6.5h-21.89v21.88l27.77 27.77-27.77 27.76v21.94h21.83l27.84-27.82 27.83 27.82z"/><path fill="url(#a)" d="M336.55 26.36l-20.37 20.37-26.36-26.36L310.19 0"/><path fill="#fff" d="M310.19 0h26.37v26.37h-26.37z"/><path fill="#fff" d="M420.23 79.92l9.62 19.93h20.78v-22l-34.47-75-1-2.36h-28l-1 2.34-34.85 75v22h20.4l9.55-19.93zM401 28l12.55 29.81H388.4z"/><path fill="#fff" d="M191.07 79.92l9.62 19.93h20.79v-22L187 2.86 186 .5h-28l-1 2.34-34.85 75v22h20.41l10-19.93zM171.8 28l12.56 29.81h-25.12z"/><path fill="#fff" d="M501.32 63.42l.27.32 29.76 35.83h18.38V81.23L531.33 60l2.35-1.14a29.75 29.75 0 0 0 10.08-8c4.24-5.18 6.4-11.71 6.4-19.39 0-9.94-3.3-17.7-9.81-23.06C534 3.15 525.57.5 515.24.5H467v99.35h24.7V62.74h9.05zm-9.62-23.06V22.5h24.93a8.93 8.93 0 0 1 0 17.85H491.7z"/><path fill="#fff" d="M81.06 99.85h24.66L105.71.5H79.22l-1.73 2.62-24.63 40.02L28.2 3.09 26.5.5H0l.01 99.35h24.66V48.23l18.32 31.69h19.76l18.31-31.69v51.62z"/><g fill="#fff"><path d="M142.81 134.85h-6.49l-.35.34v18.35l-.34.34h-5.54l-.35-.34v-18.35l-.34-.34h-6.92l-.35-.35V130l.35-.34h20.33l.35.34v4.5z"/><path d="M169 153.88h-17.62l-.35-.34V130l.35-.34H169l.35.34v4.5l-.35.35h-11.39l-.35.34v3.46l.35.35h10.73l.34.35v4.5l-.34.34h-10.73l-.35.35v3.81l.35.34H169l.35.35v4.5z"/><path d="M176.35 141.77c0-8.31 5.53-12.46 12.11-12.46 6.23 0 10 3.11 11.08 7.61l-.35.35h-5.78l-.45-.35c-.69-1.38-1.73-2.42-4.5-2.42-3.12 0-5.88 1.73-5.88 7.27s2.76 7.27 5.88 7.27c2.77 0 3.81-1 4.5-2.77l.45-.35h5.78l.35.35c-1 4.84-4.85 8-11.08 8-6.58-.04-12.11-4.19-12.11-12.5z"/><path d="M228.57 153.88H223l-.34-.34v-9l-.35-.35h-8l-.35.35v9l-.34.34h-5.54l-.35-.34V130l.35-.34h5.54l.34.34v8.65l.35.35h8l.35-.35V130l.34-.34h5.54l.35.34v23.54z"/><path d="M239.65 129.66h5.88l.69.34 8.31 13.15h.35V130l.34-.34h5.54l.35.34v23.54l-.35.34h-5.88l-.7-.34-8.3-13.15h-.35v13.15l-.34.34h-5.54l-.35-.34V130z"/><path d="M281.06 129.31c7.26 0 12.11 4.5 12.11 12.46s-4.85 12.46-12.11 12.46-12.12-4.5-12.12-12.46 4.85-12.46 12.12-12.46zm0 19.73c3.8 0 5.88-2.42 5.88-7.27s-2.08-7.27-5.88-7.27-5.89 2.42-5.89 7.27 2.08 7.23 5.89 7.23z"/><path d="M317.66 153.88h-16.27l-.34-.34V130l.34-.34h5.54l.35.34v18.35l.34.34h10l.35.35v4.5z"/><path d="M335.32 129.31c7.26 0 12.11 4.5 12.11 12.46s-4.85 12.46-12.11 12.46-12.12-4.5-12.12-12.46 4.85-12.46 12.12-12.46zm0 19.73c3.8 0 5.88-2.42 5.88-7.27s-2.08-7.27-5.88-7.27-5.89 2.42-5.89 7.27 2.08 7.23 5.89 7.23z"/><path d="M360.15 141.77c0 5.88 2.77 7.27 6.23 7.27s4.85-2.08 4.85-3.81l-.35-.34h-5.53l-.35-.35v-4.15l.35-.35h11.76l.35.35v13.15l-.35.34h-4.5l-.34-.34-.35-1.39h-.34a7.92 7.92 0 0 1-5.89 2.08c-6.92 0-11.77-4.5-11.77-12.46s4.85-12.46 12.46-12.46c6.23 0 10 3.11 11.08 7.61l-.35.35h-5.78l-.45-.35c-.69-1.38-1.73-2.42-4.5-2.42-3.8 0-6.23 1.73-6.23 7.27z"/><path d="M392.86 153.88h-5.53l-.35-.34V130l.35-.34h5.53l.35.34v23.54z"/><path d="M421.34 153.88h-17.66l-.34-.34V130l.34-.34h17.66l.34.34v4.5l-.34.35h-11.43l-.34.34v3.46l.34.35h10.73l.35.35v4.5l-.35.34h-10.73l-.34.35v3.81l.34.34h11.43l.34.35v4.5z"/><path d="M440.94 144.54l-2.43-.35c-7.26-1-8.65-4.5-8.65-8 0-3.81 3.12-6.92 10-6.92 6.23 0 10 2.42 10 7.27l-.35.34h-5.54l-.34-.34c0-1.39-1-2.43-3.81-2.43s-4.15.7-4.15 2.08 1.38 1.73 3.8 2.08l2.42.34c7.27 1 8.66 4.16 8.66 8s-2.77 7.61-10.39 7.61c-6.92 0-10.72-2.77-10.72-8l.34-.35h5.54l.35.35c0 2.08 1.38 3.11 4.49 3.11 2.77 0 4.5-.69 4.5-2.42s-1.3-2.02-3.72-2.37z"/></g></g></g></svg>